<svg xmlns="http://www.w3.org/2000/svg" viewBox="0 0 24 24" id="icon">
  <g fill="none" fill-rule="evenodd">
    <path fill="#2D0000" d="M12 1.5c5.8 0 10.5 4.7 10.5 10.5S17.8 22.5 12 22.5 1.5 17.8 1.5 12 6.2 1.5 12 1.5"/>
    <path fill="#FFF" d="M12 1c6.075 0 11 4.925 11 11s-4.925 11-11 11S1 18.075 1 12 5.925 1 12 1zm0 .814C6.375 1.814 1.814 6.374 1.814 12c0 5.625 4.56 10.186 10.186 10.186 5.625 0 10.186-4.56 10.186-10.186 0-5.625-4.56-10.186-10.186-10.186z"/>
    <path fill="#F5C800" d="M8.016 16.967a.518.518 0 010 1.033.516.516 0 110-1.033zm1.136 0a.517.517 0 11-.002 1.034.517.517 0 01.002-1.034zm2.237 0a.517.517 0 11-.002 1.034.517.517 0 01.002-1.034zm1.124 0a.518.518 0 010 1.033.516.516 0 110-1.033zm1.125 0a.517.517 0 11-.002 1.034.517.517 0 01.002-1.034zm-3.362-.01a.516.516 0 11.002 1.034.516.516 0 01-.002-1.035zm4.486 0a.515.515 0 11.002 1.032.515.515 0 01-.002-1.033zm1.136 0a.515.515 0 110 1.032.518.518 0 010-1.033zm-4.509-1.08a.517.517 0 11-.002 1.032.517.517 0 01.002-1.031zm1.124 0a.518.518 0 010 1.033.516.516 0 110-1.032zm-4.497-.01a.516.516 0 11.002 1.034.516.516 0 01-.002-1.035zm1.136 0a.515.515 0 11.002 1.032.515.515 0 01-.002-1.033zm4.486 0a.515.515 0 110 1.032.517.517 0 010-1.033zm1.124 0a.515.515 0 11.002 1.032.515.515 0 01-.002-1.033zm1.136 0a.515.515 0 110 1.032.517.517 0 010-1.033zm-5.622 0a.516.516 0 11.002 1.034.516.516 0 01-.002-1.035zm1.113-1.09a.515.515 0 11.001 1.033.515.515 0 01-.001-1.034zm1.124 0a.516.516 0 11.002 1.034.516.516 0 01-.002-1.035zm-2.237-.012a.517.517 0 110 1.034.517.517 0 010-1.034zm-2.26 0a.517.517 0 110 1.034.517.517 0 010-1.034zm1.136 0a.516.516 0 110 1.032.516.516 0 010-1.032zm4.486 0a.516.516 0 110 1.032.516.516 0 010-1.032zm1.124 0a.516.516 0 110 1.032.516.516 0 010-1.032zm1.136 0a.516.516 0 110 1.032.516.516 0 010-1.032zm-6.746-1.09a.516.516 0 110 1.032.516.516 0 010-1.032zm-1.136 0a.517.517 0 110 1.034.517.517 0 010-1.034zm2.26 0a.517.517 0 110 1.034.517.517 0 010-1.034zm2.237-1.078a.516.516 0 11.002 1.032.516.516 0 01-.002-1.032zm-4.497 0a.516.516 0 11.002 1.032.516.516 0 01-.002-1.032zm1.136 0a.515.515 0 11.001 1.03.515.515 0 01-.001-1.03zm2.237 0a.515.515 0 11.001 1.03.515.515 0 01-.001-1.03zm4.509 0a.515.515 0 11.001 1.03.515.515 0 01-.001-1.03zm-2.26 0a.515.515 0 11.001 1.03.515.515 0 01-.001-1.03zm1.124 0a.515.515 0 11.001 1.03.515.515 0 01-.001-1.03zm-4.486-.012a.517.517 0 110 1.034.517.517 0 010-1.034zm2.249-1.113a.516.516 0 110 1.032.516.516 0 010-1.032zm1.124 0a.516.516 0 110 1.032.516.516 0 010-1.032zm-5.621 0a.516.516 0 110 1.032.516.516 0 010-1.032zm1.135 0a.516.516 0 11.001 1.033.516.516 0 01-.001-1.033zm2.238 0a.516.516 0 110 1.032.516.516 0 010-1.032zm4.508-.011a.516.516 0 110 1.032.516.516 0 010-1.032zm-5.621 0a.516.516 0 110 1.032.516.516 0 010-1.032zm4.485 0a.517.517 0 110 1.034.517.517 0 010-1.034zm-3.372-1.079a.517.517 0 11-.002 1.034.517.517 0 01.002-1.034zm1.124 0a.517.517 0 11-.002 1.034.517.517 0 01.002-1.034zm2.248-.011a.517.517 0 110 1.034.517.517 0 010-1.034zm-1.124 0a.516.516 0 110 1.032.516.516 0 010-1.032zm-4.486 0a.516.516 0 11.002 1.032.516.516 0 01-.002-1.032zm-1.135 0a.516.516 0 110 1.032.516.516 0 010-1.032zm7.881 0a.516.516 0 110 1.032.516.516 0 010-1.032zm-5.621 0a.516.516 0 110 1.032.516.516 0 010-1.032zm0-1.101a.515.515 0 11.001 1.03.515.515 0 01-.001-1.03zm-1.125 0a.516.516 0 11.003 1.031.516.516 0 01-.003-1.031zm-1.135 0a.515.515 0 11.001 1.03.515.515 0 01-.001-1.03zM11.4 8.18a.515.515 0 110 1.032.516.516 0 110-1.032zm1.124 0a.515.515 0 11.001 1.03.515.515 0 01-.001-1.03zm-2.237 0a.515.515 0 110 1.032.516.516 0 110-1.032zm3.361 0a.515.515 0 11.001 1.03.515.515 0 01-.001-1.03zm1.124 0a.516.516 0 11.002 1.032.516.516 0 01-.002-1.032zm1.136 0a.515.515 0 11.001 1.03.515.515 0 01-.001-1.03zm-6.746 0a.516.516 0 11.003 1.031.516.516 0 01-.003-1.031zm-1.135 0a.515.515 0 110 1.032.516.516 0 110-1.032zm6.746-1.08a.518.518 0 010 1.033.516.516 0 110-1.033zm-1.124 0a.517.517 0 11-.002 1.034.517.517 0 01.002-1.034zm-4.486 0a.517.517 0 110 1.034.517.517 0 010-1.034zm2.238 0a.517.517 0 11-.002 1.034.517.517 0 01.002-1.034zm-3.373 0a.517.517 0 11-.002 1.034.517.517 0 01.002-1.034zm4.497 0a.517.517 0 11-.002 1.034.517.517 0 01.002-1.034zm3.384 0a.517.517 0 11-.002 1.034.517.517 0 01.002-1.034zm-5.621-.01a.516.516 0 110 1.032.516.516 0 010-1.032zm-2.26-1.08a.517.517 0 11-.002 1.034.517.517 0 01.002-1.034zm1.135 0a.517.517 0 110 1.034.517.517 0 010-1.034zm2.238 0a.517.517 0 11-.002 1.034.517.517 0 01.002-1.034zm1.124 0a.517.517 0 11-.002 1.034.517.517 0 01.002-1.034zM10.288 6a.516.516 0 110 1.032.516.516 0 010-1.032zm3.361 0a.516.516 0 110 1.032.516.516 0 010-1.032zm1.124 0a.517.517 0 110 1.034.517.517 0 010-1.034zm1.137 0a.516.516 0 110 1.032.516.516 0 010-1.032z"/>
  </g>
</svg>