<svg xmlns="http://www.w3.org/2000/svg" viewBox="0 0 24 24" id="icon">
  <g fill="none" fill-rule="evenodd">
    <path fill="#FA5A5A" d="M12 1c6.075 0 11 4.925 11 11s-4.925 11-11 11S1 18.075 1 12 5.925 1 12 1"/>
    <path fill="#FFF" d="M12 1c6.075 0 11 4.925 11 11s-4.925 11-11 11S1 18.075 1 12 5.925 1 12 1zm0 .814C6.375 1.814 1.814 6.374 1.814 12c0 5.625 4.56 10.186 10.186 10.186 5.625 0 10.186-4.56 10.186-10.186 0-5.625-4.56-10.186-10.186-10.186z"/>
    <path fill="#FFF" d="M9.588 7.5c.284 0 .562.028.832.083.27.055.495.134.675.237l-.608 1.861c-.21-.102-.4-.154-.573-.154a.567.567 0 00-.445.184c-.108.123-.163.31-.163.563v.012h1.339v1.956h-1.26v4.173H6.844v-4.173H6v-1.956h.844v-.036c0-.845.24-1.515.72-2.01.479-.493 1.154-.74 2.024-.74zm6.271.931v1.848h2.06v1.964h-2.06v1.848h-2.247v-1.848h-2.06v-1.964h2.06V8.431h2.247z"/>
  </g>
</svg>