<?xml version="1.0" encoding="utf-8"?>
<svg xmlns="http://www.w3.org/2000/svg" viewBox="0 0 24 24" id="icon">
  <path fill="#FD0" fill-rule="evenodd" d="M7.912 9.88l.001.007v-.012l-.001.005zM9.511.633L9.493.51l-.005.071v.014l.022.097v-.06zM7.916 9.867l-.003.008.003-.008zM6.798 9.33l.103-.062-.013.043-.003.083.039.022.022.3-.015.025.015.051-.003.067.017-.01.038.022.004.032.056.241-.005.09.035-.002.054.058.007-.203.035-.018.023-.176-.048-.053.025-.166.038-.004.008-.014.012-.017.014-.002.022.174-.012.038-.002.208.02.23-.014.034.017.016-.032.048.032.025.018-.053.028-.092.043-.03-.026-.026.087-.138-.034-.078.064-.072h.003l.017.09-.023.246.098.182-.001.027.057-.01-.006-.046.038-.122.02-.006.032.035.051.002-.032-.107.097-.157.03-.246.056.021.012.035.022-.079.026-.029.02-.005.01-.028.032-.006.003-.019.017.01-.017.038.01.023.033-.03.005.054.01.002-.008.058.01.004-.005.055.011.129-.011.09v.017l.011.016-.006.117.009.008.062.008.013-.001.023-.087v-.013l.005.01v.015l-.005.066.001.059v.07l.022.006v.075l.036.005.09-.258.015-.08.003-.02.04-.028v.307l.016-.025.026-.024.012-.036.01-.051-.018-.047.043-.12.002-.032.026-.02.008.063.02.016.019.131-.003.174-.004.197.013.031.032.122.019-.05.014.1.005.035.02.034.028-.314.013-.067v-.08l.01-.022.006-.142.026-.047.035-.047c.012.18-.014.391-.036.525l.012.043-.007.051.02.024.014-.043.073-.234.015.086.024-.024.004-.046.013-.042.039-.016.063-.203.053-.263.02-.124.04-.13-.014.016.017-.126.012.009.017-.077.03-.032.022-.06.017-.026.01-.007-.021.07-.02.212c-.088.175-.089.455-.12.64l.003.055.06-.245.021-.074.026-.03.01-.088-.017-.01.033-.187-.012-.02.05-.134.059-.16-.006-.018V9.44l.015-.083-.015-.056.073-.12-.014-.023.046-.064-.031-.022.053-.083.047-.127-.03-.024.048-.25.014-.057-.022-.022.057-.253.054-.205.024-.068v-.018l.021-.084.017-.08.002-.145.006-.112.001-.096.005-.14.029-.081V7.18l.03-.21.01-.188.04-.148.044-.157.007-.086-.002-.144.022-.112.089-.678-.007-.095.014-.329.025-.06.03-.212-.01-.202c.003-.139.055-.27.053-.408l.002-.068.017-.07.026-.43v-.127c.003-.125.014-.494.012-.5l.01-.036.025-.283.013-.033-.006-.021-.013-.003.014-.02.001-.09.008-.048.008-.013v-.05l.014-.102.004-.031v-.002l.006-.044.005-.068.033-.322v-.07l.004-.021.007-.028.031-.057.027-.075.022-.088-.024-.017-.039.057-.005-.047.052-.147-.043-.05-.011-.017v-.006l.011-.04.004-.004-.062-.06-.043.028V1.2l-.036-.056-.004-.039-.028-.02-.044-.03-.017-.052-.024.075-.111-.143-.033-.127-.002.01c-.016.164-.01.306-.012.43l-.067-.003-.05.19-.04-.014-.016-.17-.026-.24-.018.083-.05-.052-.045-.146.03-.021-.003-.192.022-.166-.044.138-.008.05-.017.082-.023-.085-.049.165-.017-.144.01-.191L9.423.47l-.02-.031-.021.015-.004-.017-.03.043-.028.043-.092.116-.001-.062-.086-.1-.01-.053-.004-.025-.004-.045-.007-.047-.01-.084L9.1.2V.154L9.092.122 9.091 0l-.017.06h-.002l-.008.014.004.047-.003.06-.001.061-.018.168-.022.058-.003.015-.009-.047-.014.045-.018.075-.052.011-.011.03-.083-.015-.074-.1h-.019l-.05-.004-.02.113-.015.076-.026.18-.036.05-.027.05-.012.012-.004.003-.023.02-.005.066-.005.012-.04.005-.035.01-.027-.016c-.093.116-.114.26-.127.42l-.009.153v.002l-.005.03-.06.142-.012.105-.092.319c.001.155-.072.292-.106.427-.039.154-.065.31-.098.46-.044.2-.08.387-.126.59-.037.173-.047.352-.076.53-.023.146-.038.3-.07.45l-.021.09c-.021.162-.06.313-.098.468l-.029.18c-.014.123-.046.248-.07.37l-.064.275-.043.233c-.036.16-.06.301-.093.468-.023.118-.084.398-.094.442-.041.169-.083.397-.107.53-.083.404-.142.703-.256 1.16l-.046.212.024.119.06.097zm1.087.81l-.026.048-.014.223.015-.005.017-.015.02-.09.034-.038.029-.003.026-.106v-.028l-.005-.015-.008-.063-.04-.051-.021-.1.001-.011-.024.118-.004.135zm1.382-.117l.018-.02.002-.032.04-.12c.034-.137.057-.258.082-.377l-.028-.017-.007-.019-.003.037-.023.082-.024.12-.019.025v.017l-.033.028.009.068-.01.165-.004.043zm-1.594.538l.02.004.032-.06.03-.002.005-.09-.071-.027-.016.175zM21.69 6.124l-.112.068-.022.021-.026.008.032-.032.113-.123.04-.056.042-.002.013-.013.031-.009.097-.074.071-.05.026-.023-.007.016.01.03-.308.239zm-.217.09l-.064.062-.04.008-.064.043-.208.15.034-.042c.147-.125.332-.339.514-.418l.154-.15.07-.047.088-.088.047-.005.05-.038-.033.072-.066.055-.024.023-.033.054-.152.086-.127.072-.001.021-.149.125.004.016zm-1.662 4.418l-.044.054-.015.039-.016.019-.009.001-.003.012-.099.11-.051.034.002.023-.036.042-.013.005-.036.046c.089-.253.414-.563.542-.71l.016-.002-.238.327zm-.22.064l.024-.02.02-.03.02-.01.026-.032.036-.034.044-.034-.102.176-.115.12.046-.136zm-.169.378l-.034.046-.037.049-.072.076-.02.006-.082.094.04-.086-.001-.036.044-.018.063-.064.028-.006.05-.081-.003-.018.038-.053h.024l.008.016-.046.075zm-.288.347l-.096.01.07-.103.04.013-.014.08zm-.126.112l-.03-.021.013-.048.06.026-.043.043zm3.223-5.83l.013.022-.062.075-.048.011.097-.108zm.416 1.292l-.013.026-.01-.005-.048.075-.057.059.033-.05.025-.047.025-.044.02-.052.025-.007.018-.055-.031.014-.032.05-.012.01.008-.045.018-.039.046-.073-.012-.028.007-.031-.009-.027-.014.004.013-.033.005-.014-.026-.007-.011.023-.035.039.015-.05v-.012l.007-.004.011-.014-.011-.01.002-.005.006-.016.006-.028v-.006l.003-.03-.05.046v-.021l.002-.018.017-.025.01-.06h-.128l-.026-.071.014-.032-.024.018-.058-.04.005-.034-.047-.05-.076-.027.03-.069-.121.027v-.058l.024-.024.012-.019c-.074.04-.157.16-.28.241l-.01-.021c.034-.146.183-.249.274-.363l.063-.092.022-.096.015-.048-.023-.03-.008-.066-.03.004.008-.065-.11.136-.072.082-.004-.031.02-.016.03-.089h-.049l-.001-.006.032-.04.06-.081-.031.033-.061.06-.008.007-.01-.022-.01.008-.254.256-.044-.008-.167.133.021-.003-.049.039-.022.023-.025.014-.02-.002-.041.03.018-.016.06-.08-.088.065-.064.073-.018.033-.178.146-.18.117-.04-.015-.038.028-.033.032-.036.005.047-.076-.21.134-.04.026.003-.03.039-.04.017-.037a2.61 2.61 0 00.37-.382l-.054.015-.053.019-.076.076-.022.03-.02.01-.055.06-.053.043-.229.223.007-.036.022-.03.054-.085-.049.028-.001-.027-.09.137-.088.078-.012.009-.008.008-.049.043-.065.077-.049.035-.082.12-.069.05-.065.064-.17.161-.073.115-.057.029-.054.094-.031.024-.053.063-.068.033-.07.045-.057.033-.04.023-.282.266-.097.086-.1.08-.046.072-.076.08-.093.066-.045.058-.053.047-.305.291-.161.122-.144.164-.055.042-.078.068-.063.067-.041.04-.083.038-.078.06-.08.057-.037.058-.042.043-.084.084-.173.183-.05.085-.037.028-.036.061-.112.092-.037.032-.009.017-.017.01-.015.02-.037.02-.042.097-.107.113-.14.131-.082.037-.041.135-.034.034-.045.074-.052.013-.053.082-.073.064-.084.077-.031-.005-.055.053-.024.049-.05.063-.048.074-.02.01-.036.062-.122.175-.136.218-.075.137-.036.107-.034.053-.051.157-.015.018-.01.034-.028.04-.043.167-.043.067-.017.077-.046.062-.08.162v.049l-.045.1-.02.06h-.02l.006.086.021.12.083-.074-.018-.024-.057.03.06-.128.08-.147.064-.173.051-.077.043-.025.113-.155.023-.075.06-.053.092.016.017.042.028.072-.04.182.013.041-.045-.008-.047.103v.047l-.047.098-.04-.018-.052.02-.081-.007-.002.036-.06.111-.026-.009-.092.24-.02.018-.025.069-.032.068.058.07.02.016.043.074-.01.06.058-.055.012.018-.016.106.052-.036.085-.042.005-.037.026.001.013-.024.027.018.054-.095.04.003-.028.118-.044.058-.02.072-.01.083.043-.034.063-.018.006.047.033-.003.008-.056.161-.22.2-.254.018.078-.001.082-.026.066.004.041-.026.067.003.03.004.055.139-.152-.018.068-.035.117-.035.086.1-.03.006.086.057-.08.046.013.007.06.045-.01.153-.236.11-.057.017.034h.06l.044.05.015-.007.114-.102.026-.04.156-.06.01.066.073-.094-.04-.005.115-.175.062-.052.057-.016.08-.098.082-.067.176-.11.106-.044.006.045.02.018-.047.038-.01.039-.037-.01-.062.127.083-.05.105-.106.081-.067.014-.035.063-.056.021-.084.034-.057.072-.009.025.027.062.001.077-.023.068-.135-.025-.051.02-.024.017-.032.098-.031.073.031.032.058.053-.021.037.021.036-.103.03-.044.04-.075.036-.034v-.034l.066-.061.032-.03-.102.077-.103-.007.008-.037.01-.031.193-.21.022-.027.056-.054.045-.033.047-.053.034-.02.128-.067-.04.064-.01.054-.076.028-.026.068.038.015.084-.085.009-.036.067-.065.081-.104.052-.05.048-.036.026-.03.182-.19.06-.066.035-.03.01.008.052-.08.004-.006.017-.025.036-.05.1-.116.033-.002.094-.102.031-.038.029-.018.06-.071.056-.066c.121-.133.247-.264.356-.412l.031-.026.015-.037.056-.045.052-.057.018-.043.11-.118.088-.12.084-.103.06-.105.024-.018.054-.087.064-.09.015-.035.081-.098.01-.028.062-.075.096-.124.05-.085.007-.008c.205-.22.462-.439.658-.663l.133-.17.03-.094-.032-.01a2.5 2.5 0 00-.398.373l.039-.073.036-.036.068-.12.067-.087.021-.022V7.91l.222-.277.059-.07.11-.142.073-.098.14-.196.004-.041.099-.116-.043.025zM12.37 10.962l.01-.098-.044.176.034-.078zm-.98-.552l.032-.012.039-.021v.072l-.007.074-.032.023.008.03.082-.064.005.06.047-.007.004-.047.026.011.035-.035.03.133-.03.042.011.028.045-.016.036.021.008.071-.002.09.047.017.062-.04.003-.062.081-.146.017.045c.05-.118.084-.228.12-.325l.06.024.112-.163.029.022.047.019.11-.163.035.025-.042.165-.054.218.002.003-.003.009v.006l.045-.072.03.063-.005.153-.035.011-.066.193-.04.117-.01.022.089-.162.044-.072-.007.087.1-.14-.03.143-.074.176-.005.052.018-.025.023-.053.035.005-.015.038-.023.098-.006.035-.025.115.024.032.023.035.015.002.052.02.1.02-.001-.055-.012-.055.03-.08.026-.104.065-.141.026-.04.047-.003.023.09-.005.046.004.015.011.018.13-.124.072-.082-.008.127.004.03.008.002.067-.033.01-.025.06-.048.098-.016.035.016.087-.008.082-.154.045-.076.039-.092.086-.045.036.017.104-.151.157-.256.115-.216.035-.11.114-.308.027-.093.022-.037.04-.098.079-.173.037-.074.039-.066.053-.102.03-.038.036-.125.018-.093.018-.038.035-.133.02-.034.036-.139.015-.019.013-.05.052-.105.022-.07.028-.047.085-.241.06-.124.046-.103.01-.04.03-.044.005-.03.054-.144.036-.062.039-.054.045-.133.026-.059.03-.05.015-.081.025-.034.06-.135.065-.139.04-.116.029-.036.025-.06.025-.062.001-.032.042-.042.049-.12.03-.049.03-.061.016-.057.015-.028.005-.03.028-.04.005-.03.03-.064.032-.044.012-.057.043-.049.085-.195.048-.135.06-.106.018-.064.037-.074.045-.06.021-.058.026-.048.028-.09.062-.177.053-.078.007-.033.05-.063.085-.186.065-.123.103-.211c.062-.109.111-.225.16-.348l.09-.198v-.033l.016-.054.02.017.042-.094.038-.121.014-.054.011-.172.07-.05-.066-.2-.045-.026.02-.047.028-.064.006-.012-.036-.097-.013-.047-.048-.034.003-.15.003-.005.006-.067-.013-.044-.033.001-.057.034-.02.02-.01.024-.026.037-.01.022v.004l-.005.005-.002.06-.042.016-.023-.028-.045-.093.016-.088-.004-.015.02-.114-.024-.023-.003-.117-.046.007-.004.017h-.027l.015-.031-.037-.018-.003-.01v-.009l.018-.012.003-.013.029-.143-.017-.015-.005-.04.003-.002-.002-.016-.022-.036.013-.005-.015-.017.005-.011-.025-.018-.027.04-.028-.014-.014.012-.026.013-.075.077-.026.011-.009.021-.02.018-.028-.005-.017-.01-.034-.021-.058.063-.04-.032-.017-.016.027-.092-.017-.013-.02-.024.058-.065-.029-.013-.014.015-.079.038-.032.046-.031.05-.082.093.007.013-.05-.017-.021.008-.022-.03.006-.01.02-.027.027-.035.015-.04.002-.003h-.01l-.003.009-.028.01-.043.002.01.019.032.006-.018.018-.002.008-.026.012-.017.012-.005.016-.032-.006-.038-.008.018-.046v-.025l.056-.108-.026-.015-.014.013-.018.012-.024.032-.048.065-.042.073-.015.01-.01.025v.012l-.04-.001-.038-.077-.029.016.01.144-.103.194-.143.127-.017.04-.234.242-.112.268-.074.107-.082.1-.058.122-.034.05-.044.08-.053.086-.048.098c-.078.159-.173.324-.242.485l-.043.107-.049.075-.047.08-.078.173-.105.195-.04.089c-.072.145-.156.283-.218.426l-.057.113-.036.058-.134.244-.066.13-.08.209-.075.123-.044.107-.069.121-.044.096-.027.056-.051.08-.103.197-.04.066-.068.133-.035.05-.067.125-.02.062-.092.164-.084.151-.073.14-.036.07-.045.092-.033.075-.061.095-.069.165-.041.064-.05.106-.022.07-.022.038-.063.16-.037.057-.009.033-.04.088-.018.065-.033.082-.033.07-.037.134-.022.034-.06.187-.005.042-.045.107-.053.141-.07.248-.032.13v.046l-.027.052-.027.151-.032.144-.013.086-.016.03-.002.039-.062.135-.022.049-.001.048.003.07.047.022zm4.02 1.958l-.028-.015-.083.051.077.02.034-.056zm-13.337-5.7l.007.023-.01.127.005.167-.005.048.016.157v.323l.012.045-.004.21.014.278-.006.104.026.175.018.093.006.117.012.174.009.052-.01.087-.015.078-.01.06-.003.123.023.078.029.125.032.163.018.114.059.182.036.064.037.06.027.164v.082l.027.223-.025.096c-.015.17-.01.344.002.496l.053.049.057-.012.043.089.105.04.118-.072.041-.016.058.088.102-.08.12.036.025-.019.116.097.025-.016.032.083-.02.06-.026.004.056.236.003-.119.009-.117.029-.094.04.166.046.121.046-.155.043-.03.047.152.003-.22.017-.03-.01-.07.03-.2.038.058c.043.116-.022.307.047.402l.033-.002.024.092.089-.14.04.02.108.17.022-.013.043-.232h.027l.037.075.025-.192-.01-.105-.002-.159.013-.037-.015-.11.014-.054-.014-.125-.003-.13-.006-.096.046-.001.023.056.05.027.043-.01.018.112-.02.094-.039-.022-.058.08.067.187.036-.013.039.02.018-.089.072-.052.025.107-.012.214.115-.224c.03-.119.043-.244.066-.363l.035-.109.014-.223.03-.235-.014-.317.01-.117c.007-.23.01-.447 0-.656l-.028-.205-.002-.08-.024-.061-.008-.072-.041-.105-.033-.268-.026-.195-.034-.266-.014-.195-.015-.164-.019-.106.004-.044-.036-.234-.017-.158-.03-.336-.02-.124-.01-.329-.009-.102-.025-.285.001-.102-.013-.042.001-.103-.014-.095.004-.074-.012-.063.002-.05-.024-.033-.03-.146-.014-.092-.011-.076.004-.016-.027-.08-.04-.192c-.008-.133-.047-.242-.053-.376L4 3.766l-.004-.046-.019-.023-.013-.17.028.025V3.48l-.011-.041-.027-.023-.007-.02-.026.016-.004.044.004.044-.018.03-.03-.083-.028.245-.004.045-.023-.02-.006-.054-.02-.04a2.872 2.872 0 00-.024-.314l-.018-.003-.043.04h-.001l-.004.023.014.08v.068l.032.312-.026-.027-.01-.034-.032-.098-.01.056-.056-.116-.017-.03-.02-.128-.024.012-.032.045-.028.019.002-.009-.04-.016-.142.184-.014-.056-.065-.08.004.055-.03-.045-.033-.037-.018.123-.001-.104-.038.048-.013.019-.026.04-.009-.058-.05.058-.026.076-.032-.008.009.089-.01.003-.004-.046-.03.06-.06.058-.04.023-.006.028-.023.036-.01.047-.05.082-.021.001.003-.228-.026.02-.02-.019-.016-.055-.042.277-.017.122-.04.01-.04.037-.047.097-.033-.047-.045.28-.077.304-.027.169-.033.11-.05-.043c-.051.074-.077.433-.11.656-.007.282-.052.513-.034.766l.01.113zm1.99-3.014l.05.287-.019.02.016.03-.01.03.016.096.026.011.013.104.041.238.042.164-.013.021.044.177.02.024v.054-.003l.01-.005.003-.064-.004-.045.003-.017.008-.016v-.078l.001-.02.01-.106-.02-.124-.031-.126-.035-.18-.018-.133-.034-.171-.013-.018-.006-.059-.003-.009.004-.014-.009-.006.012-.016-.012-.044.008-.035-.01-.054-.031-.01.009-.086-.042-.035.005.023v.01l.042.288.045.221.001.129.01.011.004.11.012.047-.005.037-.002-.04-.017-.038-.002-.068-.014-.029.004-.014-.01-.007.007-.034-.009-.062-.014-.034v-.091l-.039-.155.007-.04-.02-.108-.028.003-.013-.048.008-.03-.008-.027-.02.006-.005.004.015.132.02.022zm15.6 13.824l-.046.09-.268.317-.153.144-.15.153-.081.083-.028.027-.017.013-.004.007-.013.02-.022.013-.03.03v.008l-.011.003-.018.01-.026.014-.038.026-.026-.001.013-.023.016-.063.027-.07.014-.022.02-.029.023-.015.011-.01.004-.006.01-.017.025-.023.012-.022.02-.01.015-.024.152-.139.235-.23.246-.225.056-.053.022-.028.016.038-.005.014zm-.785 1.297l-.018.014-.013.014-.05.044-.112.124-.013.01-.023.021-.052.05-.01.01-.008.005-.01.017-.04.039-.133.122-.01.007-.066.076-.05.056-.004.005-.009.001-.041.018-.06.021v.009l-.036.043-.03.042.011.012.02.04-.059.072-.026.02-.035.03-.047.044-.001.002h-.003l-.073.052-.033.028-.034.022-.07.06-.004.005h-.007l-.01.006-.017.006-.114.09-.058.039-.079.057-.057.04-.007.005-.008-.004-.005-.001-.005.007-.01.014-.05.03-.009.006-.027.014-.028.016-.003.001.007.004-.04.01-.043.03-.08.032-.034-.008.029-.019.032-.033.071-.051.3-.216.054-.044.058-.05.003-.005.005-.002.03-.017.006-.008.008.001.045-.031.015-.013h-.002l-.014-.03v-.005l.006-.004.02-.024.105-.092.008-.027.008-.003.074-.057v-.004l.005-.002.107-.08.102-.075.004-.003.004.002.002-.004.052-.06.052-.062v-.002l.033-.017.014-.003.01-.017.012-.026.027-.021.016-.012.013-.01.023-.02.015-.026.019-.032.028-.015.015-.006.059-.08.002-.003.003-.004.129-.114.214-.182.008-.004.018.005.001.004.013.031-.035.043zm-1.915 1.655l-.013.01-.015.01-.023.015-.03.01-.02.008-.006.005-.014.015-.047.014-.02.005-.056.044-.041.026-.005.009-.01-.004-.016.002h-.001l-.038.015-.08.067-.066.048-.009.011-.01-.005h-.004l-.014.003-.111.074-.074.05-.005.003-.007-.001-.03.009-.054.009-.006-.006-.01-.006.023-.067h.008l.033-.022.033-.022.03-.046.021-.002.014.013h.002l.018-.02.002-.005.006-.003.042-.015.03-.01-.003-.004v-.035l.088-.028h.052l.026-.012.022-.012.005-.001.007.003.024-.022.016-.02.003-.01h.013l.044-.018.058-.022.036-.028.04-.038.004-.005.007-.003.07-.036.032-.022.006-.003.01.002.004.003.033-.007.021-.013.006.018-.05.072zm-.481-.014l.038-.072.01-.012.004-.008.01.003.03.001.021-.001.087-.119.006-.003.1-.067.024-.017h.003l.017.002.014.008.007.004.003-.005.016-.022.04-.038.037-.04h.001l.006-.003.02.002.01.002.003-.028-.002-.014.007-.004.035-.043.056-.058.004-.01.012-.025.002-.005.01-.005.111-.05.039-.05.018-.012.009-.011.017-.02.032-.007.02-.005.03-.047v-.006l.005-.004.04-.039.108-.067.183-.128.005-.001h.008l.03-.003.001-.001-.008-.032.003-.002.027-.026.165-.118.025-.024.036-.035.026-.01.018-.008.008-.01.013-.016.019-.014.017-.013.027-.023.081-.06.006-.003.005.002h.006l.004.004.03-.008.007.005.01.009-.006.011-.018.013-.007.015-.007-.007-.004.004-.001.002-.01.017v.008l-.004.007-.08.056-.198.181-.065.06-.03.02-.021.019-.029.025-.001.001-.052.038-.011.008-.016.01-.013.012-.039.025-.076.045-.023.03-.015.022.026-.017.016-.006.007-.003.01-.007.047-.02.076-.038h.01l.004.008-.062.123-.023.021-.08.057-.074.07-.055.053-.028.015-.117.093-.065.042-.001.002-.184.127-.112.068-.274.149-.021.016-.01.009-.005.009-.007-.002-.056.02-.094.018-.008-.001-.008-.006.002-.012zm1-.969h.01l.028-.004.05-.08.01-.01.008-.007.008.001h.023l.013-.003.076-.048.036-.037.015-.007-.004-.004.005-.038.045-.01.005.001.013-.026v-.008l.004-.005.012-.01.041-.024.038-.045.018-.026.063-.055.053-.047.001-.002.005-.001.01-.003.006-.009.014.008.006.011.01.004-.006.014-.045.049-.13.126-.013.03-.018.014-.105.076-.005.007-.044.045-.005.006-.025.021-.076.057-.007.022-.002.007-.006.001-.034.017-.042.021-.062.038-.021-.001.023-.066zm-2.163 1.961l-.087.059-.047.025-.006.004-.007-.002-.017.002h-.014l-.054.03-.018.011h-.006l-.005.004-.005.009-.027.01h-.005l-.001.001-.03.016-.043.022-.081.063-.01.005-.022.015-.029.016-.097.017-.006.009-.046.025-.015.001-.1.05-.017-.003.006-.02.084-.064-.006-.002.027-.019.006-.004.03-.015.013-.004.004.012.002.001h.007l.013-.01.01-.03.013-.028.003-.009.009-.001.007-.003.033-.002.135-.04.005-.013.145-.064.007.003-.003-.021-.001-.015.004-.007.048-.037.034-.024.007-.007.007.003.018-.001.038-.002.062-.015.028.034.004.007-.004.008zm-.108.906l-.003.008-.009.003-.033.001-.003-.002-.06.027-.009-.002-.002-.006.002-.033.006-.012v-.003l.005-.003.04-.006.014.001h.004l.02-.018.006-.003.01-.007.01.01.006.032-.004.013zm-.149.036l-.053.063-.018.012-.011.007-.01-.01-.006-.044.084-.044.015.001v.015zm-.382.24l-.11.041-.007-.002-.007-.004-.001-.008.022-.061.079-.02.03.036.002.008-.008.01zm-.208.064l-.01-.004v-.011l.044-.047.009-.004.01.01.005.037-.058.019zm-.114.042l-.034.01-.008-.002-.018-.011.015-.013.036-.009.004.002.015.009-.01.014zm-.127.076l-.062.048-.043-.022-.077.036-.02.032-.156.06-.118.06-.144.051-.103.054-.105.046-.149.041-.246.068c-.135.04-.269.072-.407.091l-.106.028-.108.02-.097-.023-.055.005-.04.05-.034-.02-.117.032-.033-.006-.029-.01-.02.009-.022.009-.029-.047.004-.013.031-.015.036.024.036-.019h.105l.02-.034.082.008.13-.023.061-.033.052.024.014-.037.071-.016.041.04.053-.068.082-.003.028-.023.069-.013.067-.013.102-.03h.094l.172-.039.186-.093.089-.038.164-.061.12-.022.124-.06.076-.03.034.004.073-.024.135-.061-.031.056zm7.958-7.12l-.006-.02.036-.126-.011-.01-.059.038.014-.067-.082.105-.02-.008-.04-.126.03-.083-.086.032-.017.016-.004-.006.056-.291-.087.23-.001.001-.006-.049.076-.277-.03.02-.023-.021-.036.021.089-.284.002-.069-.046.037-.005-.016-.05.084.003-.086-.027.021-.043-.025-.02.025-.007-.022-.014.014-.012-.028-.055.064.018-.135-.041.062-.06-.047.014-.103-.032.058-.026-.058-.051.164-.01-.132c-.048.123-.08.211-.122.313h-.014l-.056.101-.05-.011.02-.04-.082.035.062-.135-.071.06.009-.027-.083.07.027-.073-.026.003-.002-.1-.04.04.014-.156c-.075.138-.194.288-.281.399l-.143.164-.158.18-.037.038-.02.021-.016.006-.02.018-.066-.018-.022.027-.071.022-.018.018-.047.02-.147.092-.236.2-.278.23-.204.1-.039.035-.135.087-.067.024.02.02-.054.017-.052.025-.046.068-.038.002-.134.089-.006.03-.313.21-.113.111-.127.106-.09.07-.085.07.046.003.097-.08.018.005.1-.045.01.052-.082.077-.008.021c-.117.107-.235.232-.352.334l-.069.07-.131.12-.083.087-.067.058-.053.055-.06.086-.192.16-.1.109-.032.016-.091.075.016.014.086-.06.193-.073.09-.106v-.035l.049.008.043-.034.057-.017.093-.09.16-.153.155-.14.24-.181-.047.093-.083.077-.06.061-.124.152-.153.126-.043-.023-.015.092-.065.043-.063.06-.084.012-.128.096-.05.003-.032.078-.084.042-.066.03-.024-.001-.091.034.036.033.043.072-.074.04v.043l-.121.106-.046.016-.11.048-.08.106-.093.06-.34.23-.093.062-.09.049-.106.064-.128.087-.078.053.106-.031.085-.04.075-.039.047-.016.11-.059.08-.025-.24.176-.064.052-.031.005-.088.055-.052.047-.042.018-.079.042-.4.222-.128.066-.425.243-.302.13-.067.052-.064.05-.573.257-.048.023-.172.014-.032-.02-.041.026-.083.033-.02.1-.133.075L13 21l-.036-.013-.123.067-.045.013-.072.073-.1.042-.353.133-.073.024-.091.029-.146.031-.162.015-.033.004-.016-.009-.168.012-.032.006-.279.048c-.03.004-.668.052-.885.05l-.104.002-.156-.003-.024-.001-.121-.004-.575-.095-.09-.016-.23-.065h-.018l-.287-.102-.186-.04-.214-.084-.167-.047-.108-.044L8.06 21l-.136-.064-.306-.166-.01-.005-.013-.013-.12-.037c-.077-.05-.906-.504-1.163-.652-.297-.174-.73-.57-.873-.683l-.057-.04-.082-.072L5.062 19l-.041-.047-.075-.083-.115-.131-.308-.391-.147-.193-.165-.246-.416-.703-.24-.423-.01-.039a21.4 21.4 0 01-.194-.538v-.055l-.053-.119c-.032-.15-.074-.183-.087-.294l-.118-.705-.04-.177-.013-.052-.014-.063-.026-.08-.005-.016a5.717 5.717 0 01-.045-.336l.01-.05.009-.06.011-.034.02-.141.04-.168v-.006l.018-.086.018-.062-.03.061-.026.032.029-.086.017-.042-.055.042-.06.108-.043.062-.093.06-.029.12-.05.265h-.013l-.015.037-.015-.002-.012.023-.029.01-.014.034-.027-.01-.027.057-.017-.024.018-.073-.012-.022.025-.072-.01.004.004.009-.004.007-.034.045-.032.024c.016-.176.06-.376.06-.421l.05-.109-.012-.046.02-.108.1-.373.01-.022.01-.047.012-.03-.002-.03-.098.071-.1.297-.032.1-.004.046-.027-.028-.013.095-.014.042v.046l-.01.055-.007.027-.035.001-.046-.056v-.093l.028-.174.018-.045.018-.088.017-.052.005-.053-.044.067-.06.228-.065.132-.01.078-.035.219c-.047.17-.075.325-.114.474l-.027.115c-.14.858-.1 1.443-.106 1.497l-.008.488.007.026a2.964 2.964 0 00-.003.386L2 17.119l.01.103c.012.119.037.426.05.434.006.123.023.25.05.37.053.225.177.666.22.747l.129.296.028.069.115.25.045.094.046.077.026.032c.078.103.12.157.164.278l.057.092.07.091.07.1.144.175.017.03.014.024h.003l.089.166.06.033.08.113.037.061.066.067.022.154c-.033.017-.21-.266-.314-.395l-.01-.016-.025-.034L3 20.154c-.122-.167-.206-.315-.317-.486l-.047.012c.093.177.246.376.354.541.258.405.411.567.64.894l.041.055c.173.22.114.135.22.285l.037.047.09.1.175.205.253.28c.136.14.283.27.422.387l.057.046.012.012.074.045.133.065c.222.119.424.244.613.35.279.157.576.287.876.398.3.111.601.2.896.283.161.044.311.094.465.115l.215.03.22.017c.2.023.403.077.598.101a9.08 9.08 0 001.58.05l.095-.023-.056.004c-.483 0-.984-.018-1.49-.069a9.701 9.701 0 01-1.528-.291 8.32 8.32 0 01-1.485-.543c-.236-.115-.458-.25-.684-.38l-.026-.082.085.036c.173.102.205.124.388.214.584.287 1.105.534 1.724.71.563.157 1.13.262 1.68.305l.044.003.077.005h.005l.034.003.153-.027-.153-.018-.154-.017c-.183-.022-.365-.041-.546-.068l-.146-.02-.07-.011a4.112 4.112 0 01-.61-.142c.132-.017.126-.003.179.01l.106.02c.119.022.186.028.305.049l.07.01.12.009.15.023c.2.028.295.047.492.062l.136.02.1.014c.51.03 1.01.027 1.49.002l.176-.007.19-.01-.03-.018.068.006-.008-.027.06-.048-.002-.025.09-.004.047.025.035-.025.003.001.042.013.012-.013.066-.02.05-.026.094.003.087-.021.02-.015.03-.002.016-.014.044.008.038-.036.062-.032.04.042.155-.05.026.008.09-.021.103-.07.03.018.144-.047.017.01.049-.008.032-.022.027.007.044-.022.103-.036.072-.033.03-.003.136-.052.023-.018.095-.03.15-.07h.025l.048-.026.136-.05.03-.026.032.004.035-.03.214-.091.028.002.08-.039.056-.025.105-.053.077-.03.056-.033.195-.103.05-.035.084-.042.036-.01.097-.07.076-.025.058-.032h.03l.102-.065.119-.08.194-.086.064-.05.072-.03.047-.036.165-.082.092-.058.106-.057.078-.047.139-.077.072-.047.208-.135.133-.077.15-.09.124-.079.186-.102.015-.023.069-.038.067-.046.13-.092.083-.053c.178-.11.56-.4.562-.415l.244-.197.094-.082.084-.076.333-.308.128-.122.151-.151.065-.071.047-.05.192-.166c.103-.124.224-.216.327-.345l.139-.14.326-.318.136-.141.04-.043.044-.038.032-.049.042-.039.104-.127.097-.105.13-.142c.105-.11.2-.237.29-.375l.054-.068.054-.074.056-.05.062-.105.02-.02.003-.004v-.001c.106-.111.217-.238.323-.37a3.44 3.44 0 00.372-.557l-.07.034.017-.024.018-.044.046-.073.035-.07.018-.118.022-.169-.036.004-.025-.086zm-5.797 3.242l.032-.027.051-.006h.007l.003-.003.004-.001.003-.001.001-.002.003-.003.002-.003.087-.068.028-.098.04-.004-.026-.011-.03-.002-.01-.005-.002-.002-.001.004-.004.003-.02.003-.015-.003-.032.023-.035.027-.043.034-.022.03-.057.031-.006.013-.022.034.01.029.031.019.023-.011z"/>
</svg>