<?xml version="1.0" encoding="utf-8"?>
<svg viewBox="0 0 24 24" xmlns="http://www.w3.org/2000/svg" id="icon">
  <g fill="none" fill-rule="evenodd">
    <path d="M12 1.5c5.8 0 10.5 4.7 10.5 10.5S17.8 22.5 12 22.5 1.5 17.8 1.5 12 6.2 1.5 12 1.5" fill="#C6071C"/>
    <path d="M12 1c6.075 0 11 4.925 11 11s-4.925 11-11 11S1 18.075 1 12 5.925 1 12 1zm0 .814C6.375 1.814 1.814 6.374 1.814 12c0 5.625 4.56 10.186 10.186 10.186 5.625 0 10.186-4.56 10.186-10.186 0-5.625-4.56-10.186-10.186-10.186z" fill="#FFF"/>
    <path d="M13.284 5.116c.091.025.182.041.224.058l-.622 2.477s.232.033.423.074c.083.017.132.034.132.034l-1.151 2.858.398-2.974s-.133-.009-.208-.009a1.39 1.39 0 00-.265 0l.1-2.634h.033l.43.033c.2.025.407.058.506.083" fill="#FFF482"/>
    <path d="M11.337 7.767s.108-.025.274-.05c.05-.008.215-.025.215-.025l-.075 2.8-.604-2.65s-.091.024-.207.074a3.946 3.946 0 00-.207.091l-.92-2.65-.017-.034s.1-.041.249-.083c.15-.041.348-.09.572-.132.215-.042.414-.067.414-.067l.306 2.726z" fill="#DBE283"/>
    <path d="M15.52 5.978c.142.082.29.182.29.182l-1.358 1.963s.199.116.29.174c.083.05.215.14.224.157l-2.17 2.361 1.466-2.758s-.1-.058-.191-.1l-.24-.107.911-2.262s.108.05.232.1c.116.05.406.207.547.29" fill="#FFED00"/>
    <path d="M10.004 8.488l.223-.158c.1-.066.207-.132.207-.132l.812 2.435L9.88 8.595s-.066.05-.132.108a8.163 8.163 0 00-.182.166L7.618 6.458s.058-.058.207-.166a7.13 7.13 0 01.538-.356c.158-.091.265-.14.265-.14s1.334 2.642 1.376 2.692" fill="#94C356"/>
    <path d="M9.2 9.366c.1-.133.182-.232.182-.232l1.442 1.822L9 9.697s-.041.075-.09.157c-.076.141-.1.2-.1.2L5.92 8.403c.008-.016.19-.306.281-.438.091-.133.315-.415.373-.49.058-.065.091-.099.091-.099l2.378 2.196c.008 0 .041-.05.157-.207" fill="#009F5E"/>
    <path d="M18.453 9.449c.075.19.141.397.183.53.04.132.057.215.057.215l-1.938.505s.017.067.075.274c.074.248.082.323.082.323l-3.512.406 3.256-1.226s-.05-.133-.116-.257l-.116-.232 1.839-.953c.016.009.066.1.19.415" fill="#FBBA00"/>
    <path d="M8.595 10.865s.017-.108.058-.248c.05-.174.083-.266.083-.266l1.806 1.077-1.955-.439c-.025.141-.033.257-.041.357l-3.513-.514s.042-.24.083-.43c.041-.191.058-.25.124-.481.075-.232.108-.307.108-.307l3.247 1.251z" fill="#88CDD3"/>
    <path d="M18.925 11.553s.009.348.009.447c0 .108 0 .257-.009.414a3.762 3.762 0 01-.033.323l-1.748-.207s0 .033-.016.34a3.295 3.295 0 01-.033.331l-3.446-.87s-.009.125-.034.232l-.348-.198c0-.009.382-.075.382-.075l.008-.058 3.454.05s0-.116-.016-.257a4.94 4.94 0 00-.033-.298l1.863-.19v.016z" fill="#F39200"/>
    <path d="M10.401 11.959l-1.723.34s.008.057.05.248l-3.413.828s.05.207.1.381c.057.174.123.39.123.39l-.223.082s-.008-.008-.05-.157a7.33 7.33 0 01-.19-.72c-.058-.24-.075-.373-.075-.373l.19-.042s-.05-.215-.074-.39c-.017-.115-.05-.405-.05-.405l3.546-.017-.033-.298-.009-.207 1.831.34z" fill="#00AFCB"/>
    <path d="M9.183 13.292a7.256 7.256 0 00.158.224l-2.958 2.087s.042.083.183.266c.199.265.257.331.257.331l-.274.215s-.157-.174-.298-.38c-.133-.183-.182-.25-.298-.44a4.386 4.386 0 01-.158-.273l.257-.174s-.05-.083-.149-.282c-.1-.199-.14-.315-.14-.315l3.321-1.333s-.041-.067-.091-.183l-.1-.207s1.632-.331 1.64-.331l-1.35.795z" fill="#009FE3"/>
    <path d="M13.55 12.886s3.346 1.334 3.346 1.326c0 0 .016-.042.091-.315.05-.19.083-.323.083-.323l1.574.43s-.058.208-.133.407a9.171 9.171 0 01-.265.613c-.05.1-.091.174-.091.174l-1.309-.696s-.033.083-.149.315c-.14.298-.174.33-.166.33l-3.015-2.161-.058.124c-.05.108-.083.158-.083.158l-.315-.44.464.108.025-.05z" fill="#E30613"/>
    <path d="M9.97 14.096s.042.041.174.116l-2.079 2.974s.108.083.273.19c.183.125.324.207.324.207l-.24.406-.191-.116a7.33 7.33 0 01-.489-.331c-.199-.15-.323-.265-.323-.265l.273-.323s-.165-.133-.306-.274c-.182-.173-.224-.223-.224-.223l2.7-2.42-.157-.157a3.46 3.46 0 01-.157-.165l.464-.29.837-.489-.879 1.16z" fill="#0075BF"/>
    <path d="M13.185 13.607s.024-.025.058-.066L15.95 16s.067-.066.216-.265l.19-.257 1.077.796s-.05.082-.198.256a3.828 3.828 0 01-.44.448c-.107.1-.256.207-.256.207l-.787-.895s-.05.05-.216.199c-.149.14-.265.24-.265.24l-2.104-3.081c-.05.05-.116.132-.232.231l-.24-.679.489.406z" fill="#E6007E"/>
    <path d="M10.907 14.477c.057.016.14.025.165.033l-.903 3.57s.1.025.315.067c.307.05.356.05.356.05l-.116.662s-.083-.008-.331-.058c-.166-.033-.24-.058-.456-.116-.19-.05-.373-.124-.373-.124l.191-.539s-.15-.05-.364-.132l-.282-.116 1.64-3.305s-.066-.017-.132-.042a1.402 1.402 0 01-.191-.083l.804-1.043-.323 1.176z" fill="#004F9F"/>
    <path d="M12.613 14.154c.058-.033.108-.058.15-.091l1.598 3.305.306-.174c.166-.1.307-.19.307-.19l.596.936s-.107.082-.232.149c-.157.083-.314.165-.505.257-.166.074-.38.165-.38.165l-.357-.944s-.174.074-.315.132c-.14.058-.348.141-.348.141l-.845-3.636s-.041.024-.132.066c-.083.041-.1.05-.183.083l-.016-.945.356.746z" fill="#DD6CA6"/>
    <path d="M11.834 14.485s.042 0 .158-.025l.38 3.645s.059 0 .332-.058c.166-.033.356-.09.356-.09l.174.877s-.09.025-.265.05a7.622 7.622 0 01-.58.058c-.232.017-.406.008-.406.008l-.008-.778s-.091.008-.29.008c-.182.008-.34-.008-.34-.008l.39-3.678c-.199.008-.323.008-.323.008l.331-1.069.091 1.052z" fill="#BC90C1"/>
    <path d="M17.633 7.9L15.86 9.207s.125.158.207.274c.067.09.15.223.15.223l-3.032 1.5 2.485-2.162s-.075-.1-.141-.166l-.199-.199 1.524-1.682s.315.324.415.44l.364.463" fill="#FD0"/>
    <path d="M5 5h14v14H5z"/>
    <path d="M0 0h24v24H0z"/>
  </g>
</svg>