<svg xmlns="http://www.w3.org/2000/svg" id="lotto24" viewBox="0 0 64 64">
  <g fill="none" fill-rule="evenodd">
    <path d="M44.396 19.351c0-2.457.066-3.12.834-3.12.767 0 .834.663.834 3.12s-.067 3.12-.834 3.12c-.768 0-.834-.663-.834-3.12zM60 32c0 15.464-12.536 28-28 28S4 47.464 4 32 16.536 4 32 4s28 12.536 28 28zM41.793 19.351c.033 3.42.867 4.748 3.437 4.748s3.437-1.328 3.437-4.748-.868-4.747-3.437-4.747c-2.57 0-3.437 1.328-3.437 4.747zm-19.955 0c0 3.42.867 4.748 3.437 4.748s3.437-1.328 3.437-4.748-.868-4.747-3.437-4.747c-2.57 0-3.437 1.328-3.437 4.747zm-6.04 4.582h5.606v-1.96h-3.103v-7.17h-2.503v9.13zm6.807 20.85c.6-1.329 2.403-2.756 4.805-4.947 3.07-2.756 3.905-4.084 3.905-7.57 0-3.652-1.635-6.54-7.609-6.54-5.272 0-7.942 2.357-7.942 7.038v.764h5.44c0-1.76 0-4.283 2.236-4.283 1.668 0 2.035 1.228 2.035 3.054-.033 1.727-.067 2.69-4.305 6.242-2.035 1.76-5.572 5.013-5.572 10.524h15.717v-4.283h-8.71zm10.812-20.85v-7.138h3.704v7.138h2.503v-7.138h1.869v-1.992h-12.48v1.992h1.901v7.138h2.503zm15.317 16.334H46.43l-.033-14.077h-6.24l-8.009 14.077v4.283h8.843v4.515h5.44V44.55h2.302v-4.283zm-23.46-17.795c.768 0 .835-.664.835-3.12 0-2.458-.067-3.122-.834-3.122-.768 0-.834.664-.834 3.121s.066 3.12.834 3.12zm11.513 17.795h4.205v-7.802h-.067l-4.138 7.802z" fill="#9B0000"/>
    <path d="M0 0h64v64H0z"/>
  </g>
</svg>