<svg xmlns="http://www.w3.org/2000/svg" viewBox="0 0 24 24" id="icon">
  <g fill="none" fill-rule="evenodd">
    <path fill="#FFDF00" d="M12 1.5c5.8 0 10.5 4.7 10.5 10.5S17.8 22.5 12 22.5 1.5 17.8 1.5 12 6.2 1.5 12 1.5"/>
    <path fill="#FFF" d="M12 1c6.075 0 11 4.925 11 11s-4.925 11-11 11S1 18.075 1 12 5.925 1 12 1zm0 .814C6.375 1.814 1.814 6.374 1.814 12c0 5.625 4.56 10.186 10.186 10.186 5.625 0 10.186-4.56 10.186-10.186 0-5.625-4.56-10.186-10.186-10.186z"/>
    <path fill="#C90713" d="M13.946 11.622c.731-1.439 1.78-2.78 3.035-3.499.805-.463 1.695-.244 1.926.89.171.853.147 1.511-.426 1.89-.975.633-2.73.84-4.535.719m-.549-.05c-2.047-.218-4.071-.852-4.973-1.742-.427-.415-.268-.976-.012-1.366.902-1.426 3.29-2.657 5.254-2.864.621-.074 1.024.085 1.048.792.06 1.426-.354 3.377-1.317 5.18m-.243.44c-1.17 1.999-3.036 3.742-5.657 4.29-1.463.306-1.914-.718-1.914-1.84 0-1.268.28-2.316 2.243-2.597 1.232-.182 3.377-.121 5.328.147m.573.085c1.56.256 2.925.658 3.462 1.183.377.377.353.731.06 1.133-.719 1.012-2.572 1.817-3.644 1.939-.561.06-.695-.269-.72-.634-.073-.951.244-2.304.842-3.62m-1.085 1.778c-.878 2.109-2.183 4.657-3.182 4.998l-.597-.622c1.414-.097 2.889-3.108 3.328-4.084l.45-.292"/>
  </g>
</svg>