<svg xmlns="http://www.w3.org/2000/svg" viewBox="0 0 24 24" id="icon">
  <g fill="none" fill-rule="evenodd">
    <path d="M22.5 12c0 5.8-4.7 10.5-10.5 10.5S1.5 17.8 1.5 12 6.2 1.5 12 1.5 22.5 6.2 22.5 12z" fill="#3599BA"/>
    <path d="M12 1c6.075 0 11 4.925 11 11s-4.925 11-11 11S1 18.075 1 12 5.925 1 12 1zm0 .814C6.375 1.814 1.814 6.374 1.814 12c0 5.625 4.56 10.186 10.186 10.186 5.625 0 10.186-4.56 10.186-10.186 0-5.625-4.56-10.186-10.186-10.186z" fill="#FFF"/>
    <path d="M7.896 17.833a2.315 2.315 0 01-2.313-2.317v-7.4c0-.308.166-.594.433-.747l5.667-2.285a.639.639 0 01.634 0l5.667 2.285a.861.861 0 01.433.747v7.4a2.315 2.315 0 01-2.312 2.317h-8.21zm4.124-1.846c2.076-1.051 3.07-2.15 3.345-3.726.219-1.263-.316-2.405-1.576-2.624a1.652 1.652 0 00-1.801.761 1.652 1.652 0 00-1.8-.761c-1.26.22-1.795 1.361-1.576 2.623.274 1.576 1.269 2.675 3.345 3.726l.013.025.018-.009a.233.233 0 00.019.01l.013-.025z" fill="#FFF"/>
  </g>
</svg>